<svg width="300" height="300" viewBox="0 0 300 300" fill="none" xmlns="http://www.w3.org/2000/svg">
<path d="M0 50C0 22.3858 22.3858 0 50 0H250C277.614 0 300 22.3858 300 50V250C300 277.614 277.614 300 250 300H50C22.3858 300 0 277.614 0 250V50Z" fill="white"/>
<path d="M99.6814 233.253C96.1452 231.691 94.5375 227.555 96.0907 224.014L152.552 95.3151C154.105 91.7748 158.231 90.1713 161.767 91.7336L166.589 93.864C170.126 95.4262 171.733 99.5627 170.18 103.103L113.719 231.802C112.166 235.343 108.04 236.946 104.504 235.384L99.6814 233.253Z" fill="#262626"/>
<rect width="154.243" height="19.309" rx="7" transform="matrix(0.842741 -0.53832 0.535645 0.844443 107.917 200.543)" fill="#262626"/>
<rect width="154.622" height="19.2615" rx="7" transform="matrix(0.0979357 0.995193 -0.995125 0.0986169 109.679 61)" fill="#262626"/>
</svg>
